<?xml version="1.0" encoding="iso-8859-1"?>
<!-- Generator: Adobe Illustrator 19.0.0, SVG Export Plug-In . SVG Version: 6.00 Build 0)  -->
<svg version="1.1" id="Layer_1" xmlns="http://www.w3.org/2000/svg" xmlns:xlink="http://www.w3.org/1999/xlink" x="0px" y="0px"
	 viewBox="0 0 453.198 453.198" style="enable-background:new 0 0 453.198 453.198;" xml:space="preserve">
<g id="XMLID_340_">
	<g>
		<g>
			<path d="M226.599,0C101.502,0,0,101.358,0,226.599c0,125.18,101.454,226.599,226.599,226.599
				c125.097,0,226.599-101.358,226.599-226.599C453.199,101.485,351.824,0,226.599,0z M226.599,427.002
				c-110.679,0-200.403-89.723-200.403-200.403S115.92,26.197,226.599,26.197S427.002,115.92,427.002,226.6
				S337.279,427.002,226.599,427.002z"/>
			<path d="M409.261,209.042c-5.115-5.115-13.409-5.115-18.523,0l-15.283,15.283c-1.223-81.049-67.522-146.609-148.856-146.609
				c-82.095,0-148.883,66.789-148.883,148.883s66.789,148.883,148.883,148.883c7.234,0,13.098-5.864,13.098-13.098
				s-5.864-13.098-13.098-13.098c-67.65,0-122.687-55.037-122.687-122.687c0-67.649,55.037-122.687,122.687-122.687
				c66.16,0,120.248,52.644,122.598,118.241l-13.111-13.111c-5.115-5.115-13.409-5.115-18.523,0c-5.116,5.115-5.116,13.409,0,18.523
				l36.587,36.587c2.557,2.557,5.91,3.837,9.262,3.837s6.704-1.279,9.262-3.837l36.587-36.587
				C414.377,222.45,414.377,214.156,409.261,209.042z"/>
			<path d="M147.697,254.354c-0.698,3.684-1.045,7.864-1.045,12.542h74.356v-21.5h-40.612c8.889-9.866,30.808-14.124,37.402-30.459
				c1.045-2.587,1.568-5.524,1.568-8.809c0-7.962-2.863-14.283-8.585-18.963c-5.725-4.677-13.96-7.017-24.711-7.017
				c-18.482,0-33.538,7.733-39.268,14.185l15.23,17.618c8.204-9.339,14.023-11.048,19.858-11.048c3.681,0,6.518,0.847,8.51,2.538
				c1.99,1.693,2.986,3.934,2.986,6.719C193.386,222.622,153.131,225.587,147.697,254.354z"/>
			<path d="M295.063,181.641h-16.276l-48.673,62.411v21.351h41.06v20.455h23.889v-20.455h13.139v-21.5h-13.139V181.641z
				 M274.01,243.902h-20.306l20.306-26.428V243.902z"/>
		</g>
	</g>
</g>
<g>
</g>
<g>
</g>
<g>
</g>
<g>
</g>
<g>
</g>
<g>
</g>
<g>
</g>
<g>
</g>
<g>
</g>
<g>
</g>
<g>
</g>
<g>
</g>
<g>
</g>
<g>
</g>
<g>
</g>
</svg>
