<?xml version="1.0" standalone="no"?>
<!DOCTYPE svg PUBLIC "-//W3C//DTD SVG 20010904//EN"
 "http://www.w3.org/TR/2001/REC-SVG-20010904/DTD/svg10.dtd">
<svg version="1.0" xmlns="http://www.w3.org/2000/svg"
 width="500.000000pt" height="500.000000pt" viewBox="0 0 500.000000 500.000000"
 preserveAspectRatio="xMidYMid meet">
<metadata>
Created by potrace 1.15, written by Peter Selinger 2001-2017
</metadata>
<g transform="translate(0.000000,500.000000) scale(0.100000,-0.100000)"
fill="#000000" stroke="none">
<path d="M2342 4989 c-274 -33 -488 -111 -707 -257 -717 -478 -905 -1453 -418
-2170 77 -114 206 -252 306 -329 l47 -37 0 -68 c0 -64 -2 -70 -34 -104 -41
-43 -90 -132 -105 -191 -36 -134 -1 -300 84 -401 21 -25 23 -33 13 -44 -54
-57 -104 -175 -111 -263 -14 -185 93 -370 260 -449 l61 -30 17 -64 c81 -326
379 -566 715 -577 126 -4 290 29 358 73 12 8 22 10 22 6 0 -5 4 -4 8 2 4 6 28
23 53 37 153 89 288 276 335 462 11 42 23 69 33 72 127 41 251 172 287 305 22
81 20 191 -5 266 -22 63 -55 125 -85 154 -13 14 -12 19 10 49 35 47 70 116 84
169 16 57 16 172 0 230 -17 63 -65 151 -105 191 -33 32 -34 38 -35 104 l0 71
48 37 c127 96 283 280 371 437 348 616 250 1360 -245 1865 -238 243 -561 402
-909 450 -74 10 -281 12 -353 4z m358 -294 c267 -50 489 -161 678 -339 113
-106 237 -290 296 -436 20 -50 38 -98 39 -108 2 -9 9 -35 15 -57 27 -98 37
-189 36 -335 -2 -193 -45 -372 -131 -545 -91 -181 -212 -325 -386 -457 -90
-69 -107 -98 -107 -186 l0 -58 -90 -1 -90 -1 0 292 0 291 111 110 c61 61 117
124 125 142 51 119 -62 238 -182 193 -15 -6 -67 -50 -116 -97 l-88 -87 0 -418
0 -418 -67 -2 c-147 -3 -402 -3 -475 0 l-78 4 0 417 0 417 -92 91 c-65 63
-103 93 -126 98 -118 25 -213 -81 -171 -191 5 -16 62 -80 125 -144 l114 -116
0 -290 0 -291 -90 0 -90 -1 0 60 c0 89 -17 117 -111 189 -248 188 -415 442
-485 739 -22 96 -29 170 -28 310 3 524 357 1005 864 1174 41 14 86 27 100 30
14 3 36 7 50 10 14 3 45 9 70 12 25 3 47 8 49 10 6 5 294 -4 331 -11z m503
-2829 c138 -67 115 -274 -34 -313 -19 -5 -326 -9 -684 -8 -612 1 -652 2 -688
20 -22 10 -49 34 -62 54 -69 105 -19 231 104 263 7 2 309 3 670 3 621 -1 658
-2 694 -19z m-5 -625 c46 -23 67 -46 87 -94 32 -76 -5 -170 -81 -207 -39 -19
-62 -20 -702 -20 -569 0 -668 2 -699 15 -38 16 -53 31 -79 79 -47 85 -11 186
80 227 39 18 79 19 699 19 623 -1 661 -2 695 -19z m-248 -642 c-5 -17 -24 -53
-41 -81 -202 -314 -661 -297 -833 32 -20 37 -36 71 -36 74 0 3 207 6 459 6
l460 0 -9 -31z"/>
</g>
</svg>
