<?xml version="1.0" encoding="iso-8859-1"?>
<!-- Generator: Adobe Illustrator 19.0.0, SVG Export Plug-In . SVG Version: 6.00 Build 0)  -->
<svg version="1.1" id="Layer_1" xmlns="http://www.w3.org/2000/svg" xmlns:xlink="http://www.w3.org/1999/xlink" x="0px" y="0px"
	 viewBox="0 0 459.052 459.052" style="enable-background:new 0 0 459.052 459.052;" xml:space="preserve">
<g id="XMLID_750_">
	<g>
		<g>
			<path d="M420.552,88.662h-16.411v30h16.411c4.687,0,8.5,3.813,8.5,8.5v258c0,4.687-3.813,8.5-8.5,8.5H38.5
				c-4.687,0-8.5-3.813-8.5-8.5v-258c0-4.687,3.813-8.5,8.5-8.5h15.444v-30H38.5c-21.229,0-38.5,17.271-38.5,38.5v258
				c0,21.229,17.271,38.5,38.5,38.5h382.052c21.229,0,38.5-17.271,38.5-38.5v-258C459.052,105.933,441.781,88.662,420.552,88.662z"
				/>
			<rect x="214.434" y="88.662" width="29.218" height="30"/>
			<rect x="119.58" y="88.662" width="29.218" height="30"/>
			<rect x="309.287" y="88.662" width="29.218" height="30"/>
			<path d="M276.469,137.933c7.079,0,12.818-5.739,12.818-12.818V48.208c0-7.079-5.739-12.818-12.818-12.818
				s-12.818,5.739-12.818,12.818v76.907C263.652,132.194,269.391,137.933,276.469,137.933z"/>
			<path d="M181.616,137.933c7.079,0,12.818-5.739,12.818-12.818V48.208c0-7.079-5.739-12.818-12.818-12.818
				c-7.079,0-12.818,5.739-12.818,12.818v76.907C168.798,132.194,174.537,137.933,181.616,137.933z"/>
			<path d="M86.762,137.933c7.079,0,12.818-5.739,12.818-12.818V48.208c0-7.079-5.739-12.818-12.818-12.818
				c-7.079,0-12.818,5.739-12.818,12.818v76.907C73.944,132.194,79.683,137.933,86.762,137.933z"/>
			<path d="M371.323,137.933c7.079,0,12.818-5.739,12.818-12.818V48.208c0-7.079-5.739-12.818-12.818-12.818
				s-12.818,5.739-12.818,12.818v76.907C358.505,132.194,364.244,137.933,371.323,137.933z"/>
			<polygon points="282.696,295.122 304.763,295.122 304.763,268.391 332.631,214.36 308.517,214.36 293.729,249.281 
				279.283,214.36 255.282,214.36 282.696,268.164 			"/>
			<path d="M188.854,254.628c0-16.465-7.574-30.594-23.091-37.082c-9.708-4.054-16.197-3.186-48.685-3.186v80.762h31.054
				C172.254,295.122,188.854,279.52,188.854,254.628z M139.261,275.784v-42.086h-0.001c8.64,0,21.185-1.901,25.821,12.398
				c0.833,2.579,1.251,5.423,1.251,8.531c0,3.033-0.398,5.84-1.194,8.417c-1.521,4.926-4.533,8.937-9.27,11.147
				C151.735,276.121,148.825,275.784,139.261,275.784z"/>
			<path d="M216.153,214.36l-28.096,80.762h22.636l4.777-15.812h21.499l4.891,15.812h22.522L236.4,214.36H216.153z M218.769,264.523
				l7.508-25.024l7.166,25.024H218.769z"/>
		</g>
	</g>
</g>
<g>
</g>
<g>
</g>
<g>
</g>
<g>
</g>
<g>
</g>
<g>
</g>
<g>
</g>
<g>
</g>
<g>
</g>
<g>
</g>
<g>
</g>
<g>
</g>
<g>
</g>
<g>
</g>
<g>
</g>
</svg>
