<?xml version="1.0" encoding="iso-8859-1"?>
<!-- Generator: Adobe Illustrator 19.0.0, SVG Export Plug-In . SVG Version: 6.00 Build 0)  -->
<svg version="1.1" id="Layer_1" xmlns="http://www.w3.org/2000/svg" xmlns:xlink="http://www.w3.org/1999/xlink" x="0px" y="0px"
	 viewBox="0 0 459.052 459.052" style="enable-background:new 0 0 459.052 459.052;" xml:space="preserve">
<g id="XMLID_518_">
	<g>
		<g>
			<rect x="119.58" y="88.662" width="29.218" height="30"/>
			<path d="M420.552,88.662h-16.411v30h16.411c4.687,0,8.5,3.813,8.5,8.5v258c0,4.687-3.813,8.5-8.5,8.5H38.5
				c-4.687,0-8.5-3.813-8.5-8.5v-258c0-4.687,3.813-8.5,8.5-8.5h15.444v-30H38.5c-21.229,0-38.5,17.271-38.5,38.5v258
				c0,21.229,17.271,38.5,38.5,38.5h382.052c21.229,0,38.5-17.271,38.5-38.5v-258C459.052,105.933,441.781,88.662,420.552,88.662z"
				/>
			<rect x="309.287" y="88.662" width="29.218" height="30"/>
			<rect x="214.434" y="88.662" width="29.218" height="30"/>
			<path d="M276.469,137.933c7.079,0,12.818-5.739,12.818-12.818V48.208c0-7.079-5.739-12.818-12.818-12.818
				s-12.818,5.739-12.818,12.818v76.907C263.652,132.194,269.391,137.933,276.469,137.933z"/>
			<path d="M181.616,137.933c7.079,0,12.818-5.739,12.818-12.818V48.208c0-7.079-5.739-12.818-12.818-12.818
				c-7.079,0-12.818,5.739-12.818,12.818v76.907C168.798,132.194,174.537,137.933,181.616,137.933z"/>
			<path d="M86.762,137.933c7.079,0,12.818-5.739,12.818-12.818V48.208c0-7.079-5.739-12.818-12.818-12.818
				c-7.079,0-12.818,5.739-12.818,12.818v76.907C73.944,132.194,79.683,137.933,86.762,137.933z"/>
			<path d="M371.323,137.933c7.079,0,12.818-5.739,12.818-12.818V48.208c0-7.079-5.739-12.818-12.818-12.818
				s-12.818,5.739-12.818,12.818v76.907C358.505,132.194,364.244,137.933,371.323,137.933z"/>
			<path d="M82.595,215.766h293.862c8.284,0,15-6.716,15-15s-6.716-15-15-15H82.595c-8.284,0-15,6.716-15,15
				C67.595,209.051,74.311,215.766,82.595,215.766z"/>
			<path d="M82.595,283.599h183.918c8.284,0,15-6.716,15-15s-6.716-15-15-15H82.595c-8.284,0-15,6.716-15,15
				C67.595,276.884,74.311,283.599,82.595,283.599z"/>
			<path d="M82.595,351.433h285.64c8.284,0,15-6.716,15-15s-6.716-15-15-15H82.595c-8.284,0-15,6.716-15,15
				C67.595,344.718,74.311,351.433,82.595,351.433z"/>
		</g>
	</g>
</g>
<g>
</g>
<g>
</g>
<g>
</g>
<g>
</g>
<g>
</g>
<g>
</g>
<g>
</g>
<g>
</g>
<g>
</g>
<g>
</g>
<g>
</g>
<g>
</g>
<g>
</g>
<g>
</g>
<g>
</g>
</svg>
