<?xml version="1.0" encoding="iso-8859-1"?>
<!-- Generator: Adobe Illustrator 19.0.0, SVG Export Plug-In . SVG Version: 6.00 Build 0)  -->
<svg version="1.1" id="Layer_1" xmlns="http://www.w3.org/2000/svg" xmlns:xlink="http://www.w3.org/1999/xlink" x="0px" y="0px"
	 viewBox="0 0 459.053 459.053" style="enable-background:new 0 0 459.053 459.053;" xml:space="preserve">
<g id="XMLID_105_">
	<g>
		<g>
			<rect x="119.58" y="88.662" width="29.218" height="30"/>
			<rect x="214.434" y="88.662" width="29.218" height="30"/>
			<path d="M420.553,88.662h-16.412v30h16.412c4.686,0,8.5,3.813,8.5,8.5v258c0,4.687-3.814,8.5-8.5,8.5H38.5
				c-4.687,0-8.5-3.813-8.5-8.5v-258c0-4.687,3.813-8.5,8.5-8.5h15.445v-30H38.5c-21.229,0-38.5,17.271-38.5,38.5v258
				c0,21.229,17.271,38.5,38.5,38.5h382.053c21.229,0,38.5-17.271,38.5-38.5v-258C459.053,105.933,441.781,88.662,420.553,88.662z"
				/>
			<rect x="309.288" y="88.662" width="29.218" height="30"/>
			<path d="M276.47,137.933c7.079,0,12.818-5.739,12.818-12.818V48.209c0-7.079-5.739-12.818-12.818-12.818
				c-7.079,0-12.818,5.739-12.818,12.818v76.907C263.652,132.195,269.391,137.933,276.47,137.933z"/>
			<path d="M181.616,137.933c7.079,0,12.818-5.739,12.818-12.818V48.209c0-7.079-5.739-12.818-12.818-12.818
				c-7.079,0-12.818,5.739-12.818,12.818v76.907C168.798,132.195,174.537,137.933,181.616,137.933z"/>
			<path d="M86.763,137.933c7.079,0,12.818-5.739,12.818-12.818V48.209c0-7.079-5.739-12.818-12.818-12.818
				S73.945,41.13,73.945,48.209v76.907C73.945,132.194,79.684,137.933,86.763,137.933z"/>
			<path d="M371.323,137.933c7.079,0,12.818-5.739,12.818-12.818V48.209c0-7.079-5.739-12.818-12.818-12.818
				s-12.818,5.739-12.818,12.818v76.907C358.506,132.194,364.244,137.933,371.323,137.933z"/>
			<path d="M150.006,202.898l55.264,55.264l-55.264,55.264c-5.858,5.857-5.858,15.355,0,21.213c2.929,2.93,6.768,4.394,10.606,4.394
				s7.678-1.465,10.606-4.394l55.264-55.264l55.264,55.264c2.929,2.929,6.768,4.394,10.606,4.394c3.839,0,7.678-1.465,10.607-4.394
				c5.858-5.857,5.858-15.355,0-21.213l-55.264-55.264l55.264-55.264c5.858-5.857,5.858-15.355,0-21.213
				c-5.857-5.858-15.354-5.858-21.213,0l-55.264,55.264l-55.264-55.264c-5.857-5.857-15.355-5.857-21.213,0
				C144.148,187.543,144.148,197.041,150.006,202.898z"/>
		</g>
	</g>
</g>
<g>
</g>
<g>
</g>
<g>
</g>
<g>
</g>
<g>
</g>
<g>
</g>
<g>
</g>
<g>
</g>
<g>
</g>
<g>
</g>
<g>
</g>
<g>
</g>
<g>
</g>
<g>
</g>
<g>
</g>
</svg>
