<?xml version="1.0" encoding="iso-8859-1"?>
<!-- Generator: Adobe Illustrator 19.0.0, SVG Export Plug-In . SVG Version: 6.00 Build 0)  -->
<svg version="1.1" id="Layer_1" xmlns="http://www.w3.org/2000/svg" xmlns:xlink="http://www.w3.org/1999/xlink" x="0px" y="0px"
	 viewBox="0 0 459 459" style="enable-background:new 0 0 459 459;" xml:space="preserve">
<g id="XMLID_747_">
	<g>
		<g>
			<path d="M229.5,0C102.751,0,0,102.751,0,229.5S102.751,459,229.5,459S459,356.249,459,229.5S356.25,0,229.5,0z M370.568,370.568
				C332.887,408.248,282.789,429,229.5,429c-53.288,0-103.387-20.752-141.068-58.432C50.751,332.887,30,282.788,30,229.5
				c0-53.288,20.751-103.387,58.432-141.068C126.113,50.752,176.212,30,229.5,30c53.289,0,103.387,20.752,141.068,58.432
				C408.248,126.113,429,176.212,429,229.5C429,282.788,408.248,332.887,370.568,370.568z"/>
			<path d="M330.5,214.5h-53.165c-5.378-14.992-17.573-26.764-32.835-31.55V74c0-8.284-6.716-15-15-15s-15,6.716-15,15v108.799
				c-20.998,6.343-36.336,25.861-36.336,48.901c0,28.165,22.914,51.079,51.079,51.079c23.746,0,43.758-16.289,49.454-38.279H330.5
				c8.284,0,15-6.716,15-15S338.784,214.5,330.5,214.5z M229.243,253.779c-12.175,0-22.079-9.905-22.079-22.079
				s9.904-22.079,22.079-22.079c12.175,0,22.079,9.904,22.079,22.079S241.417,253.779,229.243,253.779z"/>
		</g>
	</g>
</g>
<g>
</g>
<g>
</g>
<g>
</g>
<g>
</g>
<g>
</g>
<g>
</g>
<g>
</g>
<g>
</g>
<g>
</g>
<g>
</g>
<g>
</g>
<g>
</g>
<g>
</g>
<g>
</g>
<g>
</g>
</svg>
