<svg height="512pt" viewBox="0 -112 512 512" width="512pt" xmlns="http://www.w3.org/2000/svg"><path d="m79.609375 288.296875c-43.898437 0-79.609375-35.714844-79.609375-79.609375 0-43.898438 35.710938-79.609375 79.609375-79.609375h21.710937c7.558594-72.425781 68.96875-129.078125 143.363282-129.078125 58.570312 0 111.09375 35.792969 133.164062 88.882812 66.375-21.746093 134.152344 28.011719 134.152344 97.15625 0 26.628907-10.183594 51.839844-28.675781 70.992188-18.414063 19.074219-43.113281 30.140625-69.5625 31.164062-2.980469.148438 19.519531.101563-334.152344.101563zm0-128.621094c-27.023437 0-49.011719 21.984375-49.011719 49.011719 0 27.023438 21.988282 49.011719 49.011719 49.011719 8.8125 0 329.917969.039062 332.894531-.074219 38.632813-1.460938 68.898438-32.90625 68.898438-71.585938 0-54.105468-57.960938-88.621093-105.414063-63.21875-8.613281 4.609376-19.3125.058594-21.949219-9.363281-13.660156-48.785156-58.628906-82.859375-109.355468-82.859375-64.230469 0-114.203125 53.222656-113.546875 113.78125 0 8.449219-6.847657 15.296875-15.296875 15.296875zm0 0"/></svg>