<?xml version="1.0" encoding="iso-8859-1"?>
<!-- Generator: Adobe Illustrator 18.0.0, SVG Export Plug-In . SVG Version: 6.00 Build 0)  -->
<!DOCTYPE svg PUBLIC "-//W3C//DTD SVG 1.1//EN" "http://www.w3.org/Graphics/SVG/1.1/DTD/svg11.dtd">
<svg version="1.1" id="Capa_1" xmlns="http://www.w3.org/2000/svg" xmlns:xlink="http://www.w3.org/1999/xlink" x="0px" y="0px"
	 viewBox="0 0 217.557 217.557" style="enable-background:new 0 0 217.557 217.557;" xml:space="preserve">
<g>
	<path d="M184.931,92.875h-20.822V69.3c0-4.143-3.357-7.5-7.5-7.5H21.05c-4.143,0-7.5,3.357-7.5,7.5v124.005
		c0,13.373,10.879,24.253,24.252,24.253h102.053c13.374,0,24.254-10.88,24.254-24.253v-6.822h20.822
		c10.519,0,19.076-8.557,19.076-19.075V111.95C204.007,101.431,195.45,92.875,184.931,92.875z M149.109,193.304
		c0,5.103-4.151,9.253-9.254,9.253H37.802c-5.101,0-9.252-4.15-9.252-9.253V76.8h120.559V193.304z M189.007,167.407
		c0,2.209-1.866,4.075-4.076,4.075h-20.822v-63.607h20.822c2.21,0,4.076,1.866,4.076,4.075V167.407z"/>
	<path d="M73.66,40.677c-0.18,1.05-1.504,2.456-3.632,3.859c-2.767,1.824-3.531,5.545-1.708,8.311
		c1.153,1.75,3.065,2.699,5.016,2.699c1.133,0,2.279-0.321,3.296-0.991c5.106-3.366,8.086-7.354,8.856-11.854
		c1.233-7.204-3.342-13.235-7.377-18.556c-2.436-3.21-5.465-7.205-5.11-9.278c0.18-1.05,1.503-2.456,3.631-3.858
		c2.768-1.824,3.531-5.545,1.708-8.312c-1.824-2.768-5.546-3.531-8.312-1.708c-5.105,3.365-8.085,7.353-8.855,11.853
		c-1.232,7.204,3.342,13.234,7.377,18.556C70.985,34.609,74.014,38.603,73.66,40.677z"/>
	<path d="M104.66,40.677c-0.18,1.05-1.504,2.456-3.632,3.859c-2.767,1.824-3.531,5.545-1.708,8.311
		c1.153,1.75,3.065,2.699,5.016,2.699c1.133,0,2.279-0.321,3.296-0.991c5.106-3.366,8.086-7.354,8.856-11.854
		c1.233-7.204-3.342-13.235-7.377-18.556c-2.436-3.21-5.465-7.205-5.11-9.278c0.18-1.05,1.503-2.456,3.631-3.858
		c2.768-1.824,3.531-5.545,1.708-8.312c-1.823-2.768-5.546-3.531-8.312-1.708c-5.105,3.365-8.085,7.353-8.855,11.853
		c-1.232,7.204,3.342,13.234,7.377,18.556C101.985,34.609,105.014,38.603,104.66,40.677z"/>
</g>
<g>
</g>
<g>
</g>
<g>
</g>
<g>
</g>
<g>
</g>
<g>
</g>
<g>
</g>
<g>
</g>
<g>
</g>
<g>
</g>
<g>
</g>
<g>
</g>
<g>
</g>
<g>
</g>
<g>
</g>
</svg>
