<?xml version="1.0" encoding="iso-8859-1"?>
<!-- Generator: Adobe Illustrator 19.0.0, SVG Export Plug-In . SVG Version: 6.00 Build 0)  -->
<svg version="1.1" id="Layer_1" xmlns="http://www.w3.org/2000/svg" xmlns:xlink="http://www.w3.org/1999/xlink" x="0px" y="0px"
	 viewBox="0 0 458.252 458.252" style="enable-background:new 0 0 458.252 458.252;" xml:space="preserve">
<g id="XMLID_451_">
	<g>
		<path d="M372.259,355.448c-4.556-28.58-14.842-57.406-29.468-82.272c-12.812-21.782-28.275-39.726-45.438-52.878
			c33.086-25.477,59.556-68.499,71.247-116.801c24.984-3.798,44.191-25.424,44.191-51.452C412.791,23.347,389.444,0,360.747,0
			H97.505C68.808,0,45.461,23.347,45.461,52.044c0,26.028,19.207,47.654,44.191,51.452c11.69,48.302,38.16,91.324,71.247,116.801
			c-17.164,13.152-32.626,31.096-45.438,52.878c-14.625,24.867-24.912,53.692-29.468,82.272
			c-23.176,5.253-40.532,26.019-40.532,50.761c0,28.697,23.347,52.044,52.044,52.044h263.242c28.697,0,52.044-23.347,52.044-52.044
			C412.791,381.466,395.435,360.701,372.259,355.448z M360.747,429.865H97.505c-13.044,0-23.656-10.612-23.656-23.656
			s10.612-23.656,23.656-23.656h1.089c7.262,0,13.353-5.482,14.115-12.704c6.244-59.164,39.53-115.469,80.944-136.923
			c4.709-2.439,7.665-7.3,7.665-12.603c0-5.303-2.956-10.164-7.665-12.603c-32.799-16.991-61.443-57.414-74.48-103.632h170.952
			c7.839,0,14.194-6.355,14.194-14.194S297.964,75.7,290.125,75.7H101.218h-3.713c-13.044,0-23.656-10.612-23.656-23.656
			s10.612-23.656,23.656-23.656h263.242c13.044,0,23.656,10.612,23.656,23.656S373.791,75.7,360.747,75.7h-3.713
			c-6.805,0-12.652,4.829-13.938,11.511c-10.212,53.048-41.757,101.476-78.497,120.509c-4.709,2.439-7.665,7.3-7.665,12.603
			s2.956,10.164,7.665,12.603c37.733,19.547,68.709,68.027,78.642,121.24h-57.074c-6.348-21.82-19.831-41.575-36.734-50.745v-0.927
			c0.034-0.019,0.068-0.038,0.102-0.056h-0.102v-90.112h0.102c-0.034-0.019-0.068-0.037-0.102-0.056v-0.927
			c21.318-11.564,37.206-39.966,40.186-68.114c0.254-2.402-0.524-4.799-2.141-6.594c-1.617-1.795-3.92-2.816-6.336-2.816H177.108
			c-2.414,0-4.713,1.025-6.328,2.819c-1.615,1.793-2.402,4.191-2.147,6.591c2.98,28.148,18.868,56.549,40.187,68.114v0.927
			c-0.034,0.019-0.068,0.038-0.102,0.056h0.102v90.112h-0.102c0.034,0.018,0.068,0.037,0.102,0.056v0.927
			c-16.903,9.169-30.386,28.925-36.734,50.745h-3.958c-7.839,0-14.194,6.355-14.194,14.194s6.355,14.194,14.194,14.194h191.531
			h1.089c13.044,0,23.656,10.612,23.656,23.656S373.791,429.865,360.747,429.865z M222.355,328.373
			c0.026-0.014,0.051-0.028,0.077-0.042c4.197-2.293,9.192-2.293,13.389,0c0.025,0.014,0.051,0.028,0.076,0.041
			c7.1,3.852,14.487,12.875,19.534,24.184H202.82C207.869,341.247,215.255,332.224,222.355,328.373z M206.394,169.243
			c-1.31-2.255-2.507-4.612-3.581-7.037h52.625c-1.074,2.426-2.271,4.782-3.581,7.038c-4.577,7.877-10.394,14.127-15.96,17.146
			c-0.025,0.014-0.051,0.028-0.076,0.041c-4.197,2.294-9.192,2.294-13.389,0c-0.026-0.014-0.051-0.028-0.077-0.042
			C216.788,183.37,210.971,177.12,206.394,169.243z"/>
	</g>
</g>
<g>
</g>
<g>
</g>
<g>
</g>
<g>
</g>
<g>
</g>
<g>
</g>
<g>
</g>
<g>
</g>
<g>
</g>
<g>
</g>
<g>
</g>
<g>
</g>
<g>
</g>
<g>
</g>
<g>
</g>
</svg>
