<?xml version="1.0" encoding="iso-8859-1"?>
<!-- Generator: Adobe Illustrator 19.0.0, SVG Export Plug-In . SVG Version: 6.00 Build 0)  -->
<svg version="1.1" id="Layer_1" xmlns="http://www.w3.org/2000/svg" xmlns:xlink="http://www.w3.org/1999/xlink" x="0px" y="0px"
	 viewBox="0 0 457.544 457.544" style="enable-background:new 0 0 457.544 457.544;" xml:space="preserve">
<g id="XMLID_463_">
	<g>
		<path d="M371.706,354.903c-0.014-0.003-0.025-0.014-0.027-0.029c-4.551-28.528-14.82-57.299-29.418-82.121
			c-12.783-21.734-28.209-39.64-45.332-52.768c-0.019-0.015-0.019-0.042,0-0.057c33.017-25.437,59.423-68.366,71.095-116.569
			c0.003-0.014,0.015-0.025,0.029-0.027c25.025-3.816,44.241-25.55,44.098-51.658C411.994,22.945,388.044,0,359.314,0H98.229
			c-28.73,0-52.68,22.945-52.837,51.674c-0.143,26.107,19.072,47.842,44.097,51.658c0.014,0.002,0.026,0.013,0.029,0.027
			c11.672,48.204,38.078,91.133,71.095,116.569c0.019,0.014,0.019,0.042,0,0.057c-17.122,13.128-32.548,31.034-45.331,52.768
			c-14.599,24.821-24.868,53.593-29.418,82.121c-0.002,0.015-0.013,0.026-0.027,0.029c-23.146,5.259-40.472,26.013-40.445,50.734
			c0.03,28.553,24.266,51.907,52.819,51.907h261.123c28.553,0,52.788-23.353,52.819-51.907
			C412.178,380.916,394.852,360.162,371.706,354.903z M359.585,429.199H97.354c-13.024,0-23.62-10.596-23.62-23.62
			c0-12.009,9.203-23.62,24.706-23.62c7.251,0,13.333-5.473,14.093-12.684c6.234-59.073,39.468-115.291,80.819-136.711
			c5.739-2.974,8.872-9.55,7.209-16.135c-1.009-3.994-3.846-7.275-7.497-9.183c-32.617-17.046-61.079-57.284-74.063-103.274
			c-0.007-0.023,0.011-0.047,0.035-0.047l156.308,0.079c3.77,0.002,7.387-1.495,10.054-4.16c2.667-2.665,4.165-6.281,4.165-10.052
			c0-7.849-6.363-14.212-14.212-14.212H97.958c-13.91,0-25.126-11.389-24.167-25.265c0.848-12.259,11.092-21.974,23.563-21.974
			h262.23c13.909,0,25.126,11.389,24.167,25.265c-0.848,12.259-11.092,21.974-23.563,21.974h-3.678
			c-6.779,0-12.656,4.78-13.935,11.437c-10.158,52.854-41.531,101.126-78.111,120.235c-3.647,1.905-6.478,5.188-7.485,9.178
			c-1.662,6.584,1.469,13.16,7.209,16.134c37.665,19.511,68.587,67.895,78.513,121.008c0.004,0.022-0.013,0.043-0.036,0.043h-39.743
			c-0.018,0-0.033-0.013-0.036-0.031c-5.38-40.217-34.802-82.847-74.116-82.847c-40.269,0-71.892,45.72-74.872,90.645
			c-0.799,12.051,5,20.577,13.967,20.577h192.322c12.471,0,22.715,9.715,23.563,21.974
			C384.711,417.811,373.494,429.199,359.585,429.199z M274.18,353.573c0.004,0.023-0.013,0.044-0.036,0.044h-90.725
			c-0.023,0-0.04-0.021-0.036-0.044c5.298-28.646,25.225-54.491,45.389-54.491C248.701,299.082,268.854,324.428,274.18,353.573z"/>
	</g>
</g>
<g>
</g>
<g>
</g>
<g>
</g>
<g>
</g>
<g>
</g>
<g>
</g>
<g>
</g>
<g>
</g>
<g>
</g>
<g>
</g>
<g>
</g>
<g>
</g>
<g>
</g>
<g>
</g>
<g>
</g>
</svg>
