<?xml version="1.0" encoding="iso-8859-1"?>
<!-- Generator: Adobe Illustrator 19.0.0, SVG Export Plug-In . SVG Version: 6.00 Build 0)  -->
<svg version="1.1" id="Layer_1" xmlns="http://www.w3.org/2000/svg" xmlns:xlink="http://www.w3.org/1999/xlink" x="0px" y="0px"
	 viewBox="0 0 457.544 457.544" style="enable-background:new 0 0 457.544 457.544;" xml:space="preserve">
<g id="XMLID_458_">
	<g>
		<path d="M371.705,354.903c-0.014-0.003-0.025-0.015-0.027-0.029c-4.55-28.528-14.82-57.299-29.418-82.121
			c-12.783-21.734-28.209-39.64-45.332-52.768c-0.019-0.014-0.019-0.042,0-0.057c33.017-25.437,59.423-68.366,71.095-116.569
			c0.003-0.014,0.015-0.025,0.029-0.027c25.025-3.816,44.241-25.55,44.098-51.658C411.993,22.945,388.043,0,359.313,0H98.228
			c-28.73,0-52.68,22.945-52.837,51.674c-0.143,26.107,19.072,47.842,44.098,51.658c0.014,0.002,0.026,0.013,0.029,0.027
			c11.672,48.204,38.078,91.133,71.095,116.569c0.019,0.014,0.019,0.042,0,0.057c-17.122,13.128-32.549,31.034-45.331,52.768
			c-14.599,24.821-24.868,53.593-29.418,82.121c-0.002,0.014-0.013,0.026-0.027,0.029c-23.146,5.259-40.472,26.013-40.445,50.734
			c0.031,28.553,24.266,51.907,52.819,51.907h261.123c28.553,0,52.788-23.354,52.819-51.907
			C412.177,380.916,394.851,360.162,371.705,354.903z M359.584,429.199H97.353c-13.024,0-23.62-10.596-23.62-23.62
			c0-12.009,9.203-23.62,24.706-23.62c7.251,0,13.333-5.473,14.093-12.684c6.234-59.073,39.468-115.29,80.819-136.711
			c5.739-2.973,8.872-9.55,7.209-16.134c-1.009-3.994-3.846-7.275-7.497-9.183c-32.617-17.046-61.079-57.284-74.063-103.275
			c-0.007-0.023,0.011-0.047,0.035-0.047h35.583c0.018,0,0.033,0.013,0.036,0.031c5.553,41.514,35.667,82.847,74.116,82.847
			c40.108,0,73.841-54.999,74.766-94.112c0.13-5.504-4.901-17.11-13.861-17.11H97.957c-13.909,0-25.126-11.389-24.167-25.265
			c0.848-12.259,11.092-21.974,23.563-21.974h262.23c13.909,0,25.126,11.389,24.167,25.265
			c-0.848,12.259-11.092,21.974-23.563,21.974h-3.678c-6.779,0-12.656,4.779-13.935,11.437
			c-10.158,52.854-41.531,101.126-78.111,120.235c-3.647,1.905-6.478,5.188-7.485,9.177c-1.662,6.585,1.469,13.16,7.209,16.134
			c37.665,19.511,68.587,67.895,78.513,121.008c0.004,0.023-0.013,0.044-0.036,0.044h-39.743c-0.018,0-0.033-0.013-0.036-0.031
			c-5.38-40.217-34.802-82.847-74.116-82.847c-40.269,0-71.893,45.721-74.872,90.645c-0.799,12.051,5,20.577,13.967,20.577
			c10.582,0,184.381,0,192.322,0c12.471,0,22.715,9.715,23.563,21.974C384.71,417.811,373.493,429.199,359.584,429.199z
			 M183.361,103.97c-0.004-0.023,0.014-0.044,0.037-0.044h90.725c0.023,0,0.04,0.021,0.036,0.044
			c-5.298,28.657-25.232,54.491-45.389,54.491C208.917,158.461,188.708,133.229,183.361,103.97z M274.18,353.573
			c0.004,0.023-0.014,0.044-0.037,0.044h-90.725c-0.023,0-0.04-0.021-0.036-0.044c5.298-28.646,25.225-54.491,45.389-54.491
			C248.7,299.082,268.854,324.428,274.18,353.573z"/>
	</g>
</g>
<g>
</g>
<g>
</g>
<g>
</g>
<g>
</g>
<g>
</g>
<g>
</g>
<g>
</g>
<g>
</g>
<g>
</g>
<g>
</g>
<g>
</g>
<g>
</g>
<g>
</g>
<g>
</g>
<g>
</g>
</svg>
