<svg height="512pt" viewBox="0 0 512 512" width="512pt" xmlns="http://www.w3.org/2000/svg"><path d="m256 0c-141.160156 0-256 114.839844-256 256s114.839844 256 256 256 256-114.839844 256-256-114.839844-256-256-256zm0 482c-124.617188 0-226-101.382812-226-226s101.382812-226 226-226 226 101.382812 226 226-101.382812 226-226 226zm0 0"/><path d="m351.878906 89.960938c-3.4375-2-7.539062-2.539063-11.390625-1.511719-3.839843 1.03125-7.117187 3.539062-9.109375 6.992187l-57.675781 99.898438c-5.621094-1.640625-11.558594-2.539063-17.703125-2.539063s-12.082031.898438-17.703125 2.539063l-57.675781-99.898438c-1.992188-3.453125-5.269532-5.960937-9.109375-6.992187-3.851563-1.027344-7.953125-.480469-11.390625 1.511719-28.242188 16.34375-95.851563 68.316406-95.851563 166.039062 0 3.980469 1.582031 7.789062 4.390625 10.609375 2.808594 2.8125 6.628906 4.390625 10.609375 4.390625h115.34375c2.902344 11.871094 9.164063 22.429688 17.71875 30.621094l-57.691406 99.9375c-4.140625 7.171875-1.691406 16.332031 5.480469 20.480468 28.328125 16.40625 107.460937 48.816407 191.757812 0 7.171875-4.148437 9.621094-13.308593 5.480469-20.480468l-57.691406-99.9375c8.554687-8.191406 14.816406-18.75 17.71875-30.621094h115.34375c3.980469 0 7.800781-1.582031 10.609375-4.390625 2.808594-2.820313 4.390625-6.628906 4.390625-10.609375 0-97.605469-67.402344-149.574219-95.851563-166.039062zm-95.878906 132.839843c18.308594 0 33.199219 14.894531 33.199219 33.199219s-14.894531 33.199219-33.199219 33.199219-33.199219-14.894531-33.199219-33.199219 14.890625-33.199219 33.199219-33.199219zm-61.386719 18.199219h-99.652343c6.238281-66.992188 49.371093-104.027344 67.539062-116.949219l49.820312 86.300781c.007813.003907.015626.011719.019532.015626-8.558594 8.195312-14.824219 18.757812-17.726563 30.632812zm128.925781 161.96875c-20.285156 9.328125-74.109374 28.035156-135.070312 0l49.820312-86.296875c0-.007813 0-.011719 0-.015625 5.625 1.644531 11.5625 2.542969 17.710938 2.542969 6.144531 0 12.082031-.898438 17.707031-2.542969 0 .003906.003907.007812.003907.015625zm-6.152343-161.96875c-2.902344-11.875-9.167969-22.4375-17.726563-30.628906.007813-.007813.011719-.015625.019532-.019532l49.820312-86.300781c18.167969 12.921875 61.300781 49.957031 67.539062 116.949219zm0 0"/></svg>