<svg height="512pt" viewBox="0 0 512 512" width="512pt" xmlns="http://www.w3.org/2000/svg"><path d="m256 289.199219c18.308594 0 33.199219-14.894531 33.199219-33.199219s-14.894531-33.199219-33.199219-33.199219-33.199219 14.894531-33.199219 33.199219 14.890625 33.199219 33.199219 33.199219zm0 0"/><path d="m273.707031 316.65625c-5.621093 1.644531-11.558593 2.542969-17.707031 2.542969s-12.085938-.898438-17.710938-2.542969v.015625l-49.820312 86.296875c60.960938 28.035156 114.785156 9.328125 135.070312 0l-49.828124-86.296875c0-.007813-.003907-.011719-.003907-.015625zm0 0"/><path d="m212.320312 210.351562-49.820312-86.300781c-18.167969 12.921875-61.300781 49.957031-67.539062 116.949219h99.652343c2.902344-11.875 9.167969-22.4375 17.726563-30.632812-.003906-.003907-.011719-.011719-.019532-.015626zm0 0"/><path d="m349.5 124.050781-49.820312 86.300781c-.007813.003907-.011719.011719-.019532.019532 8.558594 8.191406 14.824219 18.753906 17.726563 30.628906h99.652343c-6.238281-66.992188-49.371093-104.027344-67.539062-116.949219zm0 0"/><path d="m256 0c-141.160156 0-256 114.839844-256 256s114.839844 256 256 256 256-114.839844 256-256-114.839844-256-256-256zm176.730469 271h-115.34375c-2.902344 11.871094-9.164063 22.429688-17.71875 30.621094l57.691406 99.941406c4.140625 7.167969 1.691406 16.328125-5.480469 20.476562-84.296875 48.816407-163.429687 16.40625-191.757812 0-7.171875-4.148437-9.621094-13.308593-5.480469-20.476562l57.691406-99.941406c-8.554687-8.191406-14.816406-18.75-17.71875-30.621094h-115.34375c-3.980469 0-7.800781-1.578125-10.609375-4.390625-2.808594-2.820313-4.390625-6.628906-4.390625-10.609375 0-97.722656 67.609375-149.695312 95.851563-166.039062 3.4375-1.992188 7.539062-2.539063 11.390625-1.511719 3.839843 1.03125 7.117187 3.539062 9.109375 6.992187l57.675781 99.898438c5.621094-1.640625 11.558594-2.539063 17.703125-2.539063s12.082031.898438 17.703125 2.539063l57.675781-99.898438c1.992188-3.453125 5.269532-5.960937 9.109375-6.992187 3.851563-1.027344 7.953125-.488281 11.390625 1.511719 28.449219 16.464843 95.851563 68.433593 95.851563 166.039062 0 3.980469-1.582031 7.789062-4.390625 10.609375-2.808594 2.8125-6.628906 4.390625-10.609375 4.390625zm0 0"/></svg>