<svg height="512pt" viewBox="0 -32 512 511" width="512pt" xmlns="http://www.w3.org/2000/svg"><path d="m507.605469 197.695312c-5.855469-5.859374-15.355469-5.859374-21.210938 0l-7.371093 7.367188c-9.820313-114.433594-106.085938-204.5625-223.023438-204.5625-59.761719 0-115.96875 23.296875-158.269531 65.597656-5.855469 5.859375-5.855469 15.355469 0 21.214844 5.859375 5.855469 15.355469 5.859375 21.214843 0 36.632813-36.636719 85.308594-56.8125 137.054688-56.8125 99.691406 0 182.035156 75.640625 192.6875 172.539062l-5.347656-5.347656c-5.855469-5.855468-15.355469-5.855468-21.214844 0-5.855469 5.859375-5.855469 15.355469 0 21.214844l32.132812 32.132812c2.816407 2.8125 6.628907 4.394532 10.609376 4.394532 3.976562 0 7.792968-1.578125 10.605468-4.394532l32.132813-32.132812c5.859375-5.855469 5.859375-15.355469 0-21.210938zm0 0"/><path d="m393.054688 361.421875c-36.632813 36.636719-85.308594 56.8125-137.054688 56.8125-99.6875 0-182.035156-75.640625-192.6875-172.542969l5.347656 5.347656c5.871094 5.871094 15.367188 5.847657 21.210938 0 5.859375-5.855468 5.859375-15.351562 0-21.210937l-32.132813-32.132813c-2.8125-2.8125-6.625-4.394531-10.605469-4.394531-3.976562 0-7.792968 1.582031-10.605468 4.394531l-32.132813 32.132813c-5.859375 5.859375-5.859375 15.355469 0 21.210937 5.855469 5.859376 15.351563 5.859376 21.210938 0l7.371093-7.367187c9.820313 114.433594 106.089844 204.5625 223.023438 204.5625 59.761719 0 115.96875-23.296875 158.269531-65.597656 5.855469-5.859375 5.855469-15.355469 0-21.214844-5.859375-5.859375-15.355469-5.855469-21.214843 0zm0 0"/><path d="m327.746094 100.046875c-7.175782-4.125-16.332032-1.664063-20.46875 5.503906l-41.925782 72.617188c-3.667968-.742188-10.449218-1.667969-18.703124 0l-41.925782-72.617188c-4.140625-7.175781-13.324218-9.632812-20.492187-5.488281-63.070313 36.445312-71.765625 99.632812-71.765625 124.304688 0 8.285156 6.71875 15 15 15h83.863281c2.027344 6.023437 5.238281 11.503906 9.359375 16.167968l-41.945312 72.648438c-4.140626 7.175781-1.683594 16.347656 5.488281 20.492187 63.308593 36.558594 122.472656 12.214844 143.5625-.015625 7.15625-4.148437 9.601562-13.3125 5.464843-20.476562l-41.945312-72.648438c4.121094-4.664062 7.332031-10.144531 9.359375-16.167968h83.859375c8.265625 0 14.972656-6.683594 15-14.945313.089844-24.359375-8.398438-87.898437-71.785156-124.375zm-54.613282 124.320313c0 9.445312-7.6875 17.132812-17.132812 17.132812s-17.132812-7.6875-17.132812-17.132812c0-9.445313 7.6875-17.132813 17.132812-17.132813s17.132812 7.6875 17.132812 17.132813zm-86.390624-89.960938 33.941406 58.792969c-4.121094 4.664062-7.328125 10.144531-9.355469 16.167969h-67.859375c1.890625-14.074219 9.585938-48.996094 43.273438-74.960938zm25.980468 194.921875 33.925782-58.761719c8.257812 1.667969 15.035156.742188 18.703124 0l33.9375 58.78125c-25.367187 10.460938-56.625 12.316406-86.566406-.019531zm87.949219-119.960937c-2.027344-6.023438-5.238281-11.507813-9.363281-16.171876.007812-.003906.011718-.011718.015625-.015624l33.941406-58.789063c11.195313 8.617187 37.75 32.789063 43.3125 74.976563zm0 0"/></svg>