<?xml version="1.0" encoding="iso-8859-1"?>
<!-- Generator: Adobe Illustrator 19.1.0, SVG Export Plug-In . SVG Version: 6.00 Build 0)  -->
<svg version="1.1" id="Capa_1" xmlns="http://www.w3.org/2000/svg" xmlns:xlink="http://www.w3.org/1999/xlink" x="0px" y="0px"
	 viewBox="0 0 467.786 467.786" style="enable-background:new 0 0 467.786 467.786;" xml:space="preserve">
<g>
	<g>
		<path d="M233.893,0C105.629,0,0,105.629,0,233.893s105.629,233.893,233.893,233.893s233.893-103.114,233.893-233.893
			C467.786,105.629,362.157,0,233.893,0z M233.893,445.151c-115.689,0-208.743-93.054-208.743-208.743
			S118.204,27.665,233.893,27.665s208.743,90.539,208.743,206.228S349.582,445.151,233.893,445.151z"/>
		<path d="M233.893,50.3c-103.114,0-186.109,82.994-186.109,186.109s82.994,186.109,186.109,186.109s186.109-82.994,186.109-186.109
			C417.487,133.294,334.492,50.3,233.893,50.3z M216.288,113.174c0-7.545,5.03-12.575,12.575-12.575
			c7.545,0,12.575,5.03,12.575,12.575v100.599c0,7.545-5.03,12.575-12.575,12.575c-7.545,0-12.575-5.03-12.575-12.575V113.174z
			 M309.343,319.402c-20.12,20.12-47.785,30.18-75.449,30.18c-2.515,0-2.515,0-5.03,0c-30.18-2.515-57.845-15.09-77.964-37.725
			c-20.12-22.635-30.18-50.3-30.18-80.479c2.515-35.21,20.12-70.419,50.3-90.539c5.03-5.03,12.575-2.515,17.605,2.515
			c5.03,5.03,2.515,12.575-2.515,17.605c-22.635,15.09-37.725,40.24-40.24,70.419c0,22.635,7.545,45.27,22.635,62.875
			c15.09,17.605,37.725,27.665,60.36,27.665s45.27-7.545,62.874-22.635c17.605-15.09,27.665-37.725,27.665-60.36
			c2.515-32.695-15.09-62.874-40.24-77.964c-5.03-2.515-7.545-12.575-5.03-17.605c2.515-5.03,12.575-7.545,17.605-5.03
			c35.21,22.635,55.33,60.359,52.815,100.599C344.552,269.103,331.977,299.283,309.343,319.402z"/>
	</g>
</g>
<g>
</g>
<g>
</g>
<g>
</g>
<g>
</g>
<g>
</g>
<g>
</g>
<g>
</g>
<g>
</g>
<g>
</g>
<g>
</g>
<g>
</g>
<g>
</g>
<g>
</g>
<g>
</g>
<g>
</g>
</svg>
