<svg height="512pt" viewBox="-1 0 511 512" width="512pt" xmlns="http://www.w3.org/2000/svg"><path d="m366.433594 141.972656c29.175781 0 56.113281 13.292969 74.046875 34.761719 21.5625-60.636719-43-115.910156-99.351563-85.777344-8.730468 4.679688-19.578125.0625-22.242187-9.488281-13.4375-47.96875-57.652344-81.46875-107.523438-81.46875-61.53125 0-111.597656 50.035156-111.648437 111.554688v.21875c.066406 8.601562-6.894532 15.605468-15.503906 15.605468h-35.753907c-26.4375 0-47.957031 21.511719-47.957031 47.960938 0 26.4375 21.519531 47.957031 47.957031 47.957031 198.765625 0 222.863281-.339844 222.863281-.339844 7.371094-45.851562 47.214844-80.984375 95.113282-80.984375zm0 0"/><path d="m451.589844 230.140625c-8.6875 4.664063-19.574219.082031-22.242188-9.488281-7.792968-27.847656-33.535156-47.671875-62.914062-47.671875-35.785156 0-65.335938 29.023437-65.335938 65.480469 0 8.492187-6.875 15.503906-15.503906 15.503906h-22.726562c-13.601563 0-24.835938 11.066406-24.835938 24.835937 0 13.695313 11.140625 24.835938 24.835938 24.835938h207.121093c.433594 0 .867188-.007813 1.300781-.03125.0625 0 .125-.007813.199219-.007813 21.042969-.796875 37.539063-17.933594 37.539063-39.007812 0-29.476563-31.582032-48.292969-57.4375-34.449219zm0 0"/><path d="m141.210938 375.34375c-8.5625 0-15.503907 6.941406-15.503907 15.503906v105.648438c0 8.5625 6.941407 15.503906 15.503907 15.503906s15.503906-6.941406 15.503906-15.503906v-105.648438c0-8.5625-6.941406-15.503906-15.503906-15.503906zm0 0"/><path d="m141.210938 273.066406c-8.5625 0-15.503907 6.941406-15.503907 15.503906v38.695313c0 8.5625 6.941407 15.503906 15.503907 15.503906s15.503906-6.941406 15.503906-15.503906v-38.695313c0-8.5625-6.941406-15.503906-15.503906-15.503906zm0 0"/><path d="m216.914062 454.4375c-8.5625 0-15.503906 6.941406-15.503906 15.503906v26.554688c0 8.5625 6.941406 15.503906 15.503906 15.503906s15.503907-6.941406 15.503907-15.503906v-26.554688c0-8.5625-6.941407-15.503906-15.503907-15.503906zm0 0"/><path d="m216.914062 329.148438c-8.5625 0-15.503906 6.941406-15.503906 15.503906v79.308594c0 8.5625 6.941406 15.503906 15.503906 15.503906s15.503907-6.941406 15.503907-15.503906v-79.308594c0-8.5625-6.941407-15.503906-15.503907-15.503906zm0 0"/><path d="m292.613281 406.199219c-8.5625 0-15.503906 6.941406-15.503906 15.503906v74.792969c0 8.5625 6.941406 15.503906 15.503906 15.503906s15.503907-6.941406 15.503907-15.503906v-74.792969c0-8.5625-6.941407-15.503906-15.503907-15.503906zm0 0"/><path d="m292.613281 339.113281c-8.5625 0-15.503906 6.941407-15.503906 15.503907v23.65625c0 8.5625 6.941406 15.503906 15.503906 15.503906s15.503907-6.941406 15.503907-15.503906v-23.65625c0-8.5625-6.941407-15.503907-15.503907-15.503907zm0 0"/><path d="m368.316406 449.925781c-8.5625 0-15.503906 6.941407-15.503906 15.503907v31.066406c0 8.5625 6.941406 15.503906 15.503906 15.503906s15.503906-6.941406 15.503906-15.503906v-31.066406c0-8.5625-6.941406-15.503907-15.503906-15.503907zm0 0"/><path d="m368.316406 339.113281c-8.5625 0-15.503906 6.941407-15.503906 15.503907v67.296874c0 8.5625 6.941406 15.503907 15.503906 15.503907s15.503906-6.941407 15.503906-15.503907v-67.296874c0-8.5625-6.941406-15.503907-15.503906-15.503907zm0 0"/></svg>