<svg height="511pt" viewBox="-21 1 511 511.99898" width="511pt" xmlns="http://www.w3.org/2000/svg"><path d="m219.144531 88.179688v51.972656c14.460938-8.347656 14.632813-9.578125 31.21875 0v-51.972656l44.992188-44.992188c6.097656-6.09375 6.097656-15.980469 0-22.074219-6.097657-6.097656-15.980469-6.097656-22.078125 0l-22.914063 22.914063v-28.417969c.003907-8.617187-6.992187-15.609375-15.609375-15.609375-8.617187 0-15.609375 6.992188-15.609375 15.609375v28.417969l-22.914062-22.914063c-6.097657-6.097656-15.980469-6.097656-22.078125 0-6.09375 6.09375-6.09375 15.980469 0 22.074219zm0 0"/><path d="m250.367188 423.820312v-51.972656c-14.460938 8.347656-14.632813 9.578125-31.222657 0v51.972656l-44.988281 44.992188c-6.097656 6.09375-6.097656 15.980469 0 22.074219 6.09375 6.097656 15.980469 6.097656 22.074219 0l22.914062-22.914063v28.414063c0 8.617187 6.996094 15.613281 15.613281 15.613281 8.617188 0 15.609376-6.996094 15.609376-15.613281v-28.414063l22.914062 22.914063c6.09375 6.097656 15.980469 6.097656 22.078125 0 6.09375-6.09375 6.09375-15.980469 0-22.074219zm0 0"/><path d="m16.105469 202.613281c2.898437 0-1.382813.917969 65.503906-17.003906l45.007813 25.984375c0-19.042969 1.03125-18.621094 15.609374-27.039062l-45-25.980469-16.472656-61.460938c-2.230468-8.328125-10.789062-13.269531-19.117187-11.039062s-13.269531 10.792969-11.039063 19.121093l8.390625 31.304688h-.007812l-24.601563-14.207031c-7.472656-4.320313-17.015625-1.761719-21.324218 5.714843-4.308594 7.460938-1.757813 17.003907 5.714843 21.320313l24.601563 14.207031-31.296875 8.386719c-8.328125 2.230469-13.269531 10.789063-11.039063 19.117187 1.867188 6.972657 8.175782 11.574219 15.070313 11.574219zm0 0"/><path d="m449.355469 309.925781-61.457031 16.464844-45.007813-25.984375c0 16.691406.980469 17.460938-15.609375 27.039062l45.003906 25.980469 16.46875 61.464844c2.230469 8.324219 10.789063 13.269531 19.117188 11.035156 8.328125-2.230469 13.269531-10.789062 11.039062-19.117187l-8.386718-31.308594.003906.003906 24.601562 14.203125c7.429688 4.316407 17 1.789063 21.324219-5.710937 4.308594-7.460938 1.757813-17.003906-5.714844-21.324219l-24.601562-14.203125 31.296875-8.386719c8.328125-2.230469 13.269531-10.792969 11.039062-19.121093-2.230468-8.328126-10.785156-13.269532-19.117187-11.035157zm0 0"/><path d="m142.226562 327.445312c-16.277343-9.398437-15.609374-9.859374-15.609374-27.039062l-45.007813 25.984375-61.453125-16.464844c-8.332031-2.234375-16.890625 2.707031-19.121094 11.035157-2.230468 8.328124 2.710938 16.890624 11.039063 19.121093l31.296875 8.386719-24.601563 14.203125c-7.472656 4.320313-10.023437 13.863281-5.714843 21.324219 4.324218 7.496094 13.894531 10.027344 21.324218 5.710937l24.601563-14.203125.007812-.003906-8.390625 31.308594c-2.230468 8.324218 2.710938 16.886718 11.039063 19.117187 8.324219 2.230469 16.886719-2.710937 19.117187-11.035156l16.46875-61.464844zm0 0"/><path d="m327.28125 184.554688c14.453125 8.347656 15.613281 7.882812 15.613281 27.039062l45.007813-25.984375 61.453125 16.464844c8.332031 2.234375 16.890625-2.714844 19.121093-11.035157 2.230469-8.328124-2.710937-16.890624-11.039062-19.121093l-31.296875-8.386719 24.601563-14.203125c7.472656-4.320313 10.023437-13.863281 5.714843-21.324219-4.308593-7.472656-13.851562-10.03125-21.324219-5.714844l-24.601562 14.207032-.007812.003906 8.390624-31.308594c2.230469-8.328125-2.710937-16.886718-11.039062-19.117187-8.328125-2.234375-16.886719 2.707031-19.117188 11.035156l-16.46875 61.464844zm0 0"/><path d="m219.144531 176.199219-45.695312 26.382812 45.695312 26.378907zm0 0"/><path d="m250.367188 176.199219v52.761719l45.695312-26.378907zm0 0"/><path d="m157.835938 282.382812 45.699218-26.382812-45.699218-26.382812zm0 0"/><path d="m219.144531 283.039062-45.695312 26.378907 45.695312 26.382812zm0 0"/><path d="m250.367188 335.800781 45.695312-26.382812-45.695312-26.378907zm0 0"/><path d="m311.671875 229.617188-45.695313 26.382812 45.695313 26.382812zm0 0"/><path d="m336.3125 112.382812c0 10.058594-8.152344 18.214844-18.210938 18.214844-10.058593 0-18.210937-8.15625-18.210937-18.214844 0-10.058593 8.152344-18.210937 18.210937-18.210937 10.058594 0 18.210938 8.152344 18.210938 18.210937zm0 0"/><path d="m96.511719 256c0 10.058594-8.152344 18.210938-18.210938 18.210938-10.058593 0-18.210937-8.152344-18.210937-18.210938s8.152344-18.210938 18.210937-18.210938c10.058594 0 18.210938 8.152344 18.210938 18.210938zm0 0"/><path d="m409.421875 256c0 10.058594-8.152344 18.210938-18.210937 18.210938-10.058594 0-18.210938-8.152344-18.210938-18.210938s8.152344-18.210938 18.210938-18.210938c10.058593 0 18.210937 8.152344 18.210937 18.210938zm0 0"/><path d="m172.402344 112.382812c0 10.058594-8.152344 18.214844-18.210938 18.214844s-18.210937-8.15625-18.210937-18.214844c0-10.058593 8.152343-18.210937 18.210937-18.210937s18.210938 8.152344 18.210938 18.210937zm0 0"/><path d="m334.921875 399.617188c0 10.058593-8.152344 18.210937-18.210937 18.210937-10.058594 0-18.214844-8.152344-18.214844-18.210937 0-10.058594 8.15625-18.214844 18.214844-18.214844 10.058593 0 18.210937 8.15625 18.210937 18.214844zm0 0"/><path d="m171.011719 399.617188c0 10.058593-8.152344 18.210937-18.210938 18.210937-10.058593 0-18.210937-8.152344-18.210937-18.210937 0-10.058594 8.152344-18.214844 18.210937-18.214844 10.058594 0 18.210938 8.15625 18.210938 18.214844zm0 0"/></svg>