<svg height="512pt" viewBox="-42 0 512 512" width="512pt" xmlns="http://www.w3.org/2000/svg"><path d="m351.0625 74.566406c-13.1875 0-25.601562 3.308594-36.46875 9.121094-13.519531-48.277344-57.839844-83.6875-110.4375-83.6875-63.335938 0-114.675781 51.34375-114.675781 114.675781v.207031h-32.242188c-31.613281 0-57.238281 25.625-57.238281 57.234376 0 31.613281 25.625 57.238281 57.238281 57.238281h293.839844c.992187 0 1.976563-.023438 2.953125-.074219 41.367188-1.566406 74.425781-35.574219 74.425781-77.320312-.003906-42.742188-34.652343-77.394532-77.394531-77.394532zm0 0"/><path d="m237.199219 442.84375c0 9.304688-7.539063 16.847656-16.84375 16.847656-9.304688 0-16.847657-7.542968-16.847657-16.847656s7.542969-16.847656 16.847657-16.847656c9.304687 0 16.84375 7.542968 16.84375 16.847656zm0 0"/><path d="m109.621094 325.503906c0 9.304688-7.542969 16.847656-16.847656 16.847656-9.304688 0-16.847657-7.542968-16.847657-16.847656 0-9.304687 7.542969-16.847656 16.847657-16.847656 9.304687 0 16.847656 7.542969 16.847656 16.847656zm0 0"/><path d="m356.871094 325.503906c0 9.304688-7.542969 16.847656-16.847656 16.847656-9.304688 0-16.847657-7.542968-16.847657-16.847656 0-9.304687 7.542969-16.847656 16.847657-16.847656 9.304687 0 16.847656 7.542969 16.847656 16.847656zm0 0"/><path d="m142.089844 425.570312c-4.328125-7.5-13.917969-10.066406-21.414063-5.738281l-12.226562 7.058594v-15.132813c0-8.65625-7.019531-15.675781-15.675781-15.675781s-15.675782 7.019531-15.675782 15.675781v15.132813l-12.226562-7.058594c-7.5-4.332031-17.085938-1.761719-21.414063 5.738281-4.328125 7.496094-1.761719 17.082032 5.738281 21.410157l12.226563 7.0625-12.226563 7.058593c-7.5 4.328126-10.066406 13.914063-5.738281 21.414063 4.328125 7.496094 13.914063 10.066406 21.414063 5.734375l12.226562-7.058594v15.132813c0 8.65625 7.019532 15.675781 15.675782 15.675781s15.675781-7.019531 15.675781-15.675781v-15.128907l12.226562 7.054688c7.492188 4.328125 17.082031 1.765625 21.414063-5.734375 4.328125-7.5 1.761718-17.085937-5.738282-21.414063l-12.226562-7.058593 12.226562-7.0625c7.5-4.328125 10.066407-13.914063 5.738282-21.410157zm0 0"/><path d="m389.339844 425.570312c-4.328125-7.5-13.914063-10.066406-21.414063-5.738281l-12.226562 7.058594v-15.132813c0-8.65625-7.019531-15.675781-15.675781-15.675781s-15.675782 7.019531-15.675782 15.675781v15.132813l-12.226562-7.058594c-7.5-4.332031-17.085938-1.761719-21.414063 5.738281-4.328125 7.496094-1.761719 17.082032 5.738281 21.410157l12.226563 7.0625-12.226563 7.058593c-7.5 4.328126-10.066406 13.914063-5.738281 21.414063 4.328125 7.496094 13.914063 10.066406 21.414063 5.734375l12.226562-7.054688v15.128907c0 8.65625 7.019532 15.675781 15.675782 15.675781s15.675781-7.019531 15.675781-15.675781v-15.132813l12.226562 7.058594c7.492188 4.328125 17.082031 1.765625 21.414063-5.734375 4.328125-7.5 1.761718-17.085937-5.738282-21.414063l-12.226562-7.058593 12.226562-7.0625c7.5-4.328125 10.066407-13.914063 5.738282-21.410157zm0 0"/><path d="m269.671875 297.03125c-4.332031-7.5-13.914063-10.066406-21.414063-5.738281l-12.226562 7.058593v-15.128906c0-8.660156-7.019531-15.675781-15.675781-15.675781s-15.675781 7.015625-15.675781 15.675781v15.128906l-12.226563-7.058593c-7.5-4.332031-17.085937-1.761719-21.414063 5.738281-4.332031 7.496094-1.761718 17.085938 5.738282 21.414062l12.226562 7.058594-12.226562 7.058594c-7.5 4.328125-10.070313 13.917969-5.738282 21.414062 4.328126 7.496094 13.914063 10.066407 21.414063 5.738282l12.226563-7.058594v15.128906c0 8.660156 7.019531 15.675782 15.675781 15.675782s15.675781-7.015626 15.675781-15.675782v-15.128906l12.226562 7.058594c7.492188 4.324218 17.082032 1.765625 21.414063-5.738282 4.328125-7.496093 1.761719-17.085937-5.738281-21.414062l-12.226563-7.058594 12.226563-7.058594c7.5-4.328124 10.066406-13.914062 5.738281-21.414062zm0 0"/></svg>