<svg height="512pt" viewBox="-55 0 512 512" width="512pt" xmlns="http://www.w3.org/2000/svg"><path d="m393.988281 262.851562-26.609375-15.359374 26.609375-15.363282c7.355469-4.246094 9.875-13.65625 5.628907-21.011718-4.25-7.355469-13.65625-9.878907-21.011719-5.628907l-26.609375 15.359375v-32.128906c0-8.496094-6.886719-15.382812-15.382813-15.382812-8.492187 0-15.382812 6.886718-15.382812 15.382812v32.128906l-26.605469-15.359375c-7.355469-4.25-16.765625-1.726562-21.011719 5.628907-4.246093 7.355468-1.726562 16.765624 5.628907 21.011718l26.605468 15.363282-26.605468 15.359374c-7.355469 4.25-9.875 13.65625-5.628907 21.015626 4.25 7.359374 13.660157 9.875 21.011719 5.628906l26.605469-15.363282v32.128907c0 8.496093 6.890625 15.382812 15.382812 15.382812 8.496094 0 15.382813-6.886719 15.382813-15.382812v-32.128907l26.609375 15.363282c7.351562 4.246094 16.761719 1.726562 21.011719-5.628906 4.25-7.359376 1.726562-16.765626-5.628907-21.015626zm0 0"/><path d="m239.816406 232.109375h-42.625v-159.5c0-40.035156-32.574218-72.609375-72.609375-72.609375h-1.746093c-40.035157 0-72.609376 32.574219-72.609376 72.609375v216.179687c-32.175781 23.710938-50.800781 60.988282-50.2148432 101.339844.9726562 66.671875 55.2382812 120.925782 121.9335932 121.859375.597657.007813 1.1875.011719 1.78125.011719 67.867188-.003906 123.691407-54.839844 123.691407-123.710938 0-39.597656-18.625-76.1875-50.226563-99.496093v-25.917969h42.625c8.496094 0 15.382813-6.886719 15.382813-15.382812 0-8.496094-6.886719-15.382813-15.382813-15.382813zm-116.105468 123.296875c18.132812 0 32.886718 14.75 32.886718 32.882812 0 18.136719-14.753906 32.886719-32.886718 32.886719-18.132813 0-32.886719-14.75-32.886719-32.886719 0-18.132812 14.753906-32.882812 32.886719-32.882812zm15.382812-154.917969h27.332031v31.621094h-27.332031zm34.449219 109.367188c26.996093 17.195312 43.109375 46.515625 43.109375 78.433593 0 51.855469-42.332032 93.675782-94.277344 92.933594-49.78125-.695312-90.871094-41.761718-91.597656-91.542968-.476563-32.492188 15.636718-62.332032 43.097656-79.820313 4.433594-2.824219 7.117188-7.71875 7.117188-12.976563v-224.273437c0-23.074219 18.773437-41.84375 41.84375-41.84375h1.746093c23.074219 0 41.84375 18.773437 41.84375 41.84375v97.113281h-27.332031v-93.882812c0-8.496094-6.890625-15.382813-15.382812-15.382813-8.496094 0-15.382813 6.886719-15.382813 15.382813v250.6875c-27.691406 6.898437-48.269531 31.96875-48.269531 61.761718 0 35.097657 28.554687 63.652344 63.652344 63.652344 35.097656 0 63.648437-28.554687 63.648437-63.652344 0-29.792968-20.578125-54.859374-48.265625-61.761718v-63.652344h27.332031v34.007812c0 5.257813 2.683594 10.152344 7.117188 12.972657zm0 0"/></svg>