<svg height="512pt" viewBox="-63 0 512 512.0003" width="512pt" xmlns="http://www.w3.org/2000/svg"><path d="m220.203125 231.015625h-32.496094v30.78125h32.496094c8.496094 0 15.390625-6.894531 15.390625-15.390625 0-8.503906-6.894531-15.390625-15.390625-15.390625zm0 0"/><path d="m377.703125 257.859375-26.621094-15.371094 26.621094-15.367187c7.359375-4.25 9.882813-13.664063 5.632813-21.023438-4.25-7.363281-13.664063-9.882812-21.023438-5.632812l-26.621094 15.367187v-32.144531c0-8.5-6.890625-15.390625-15.390625-15.390625s-15.390625 6.890625-15.390625 15.390625v32.144531l-26.621094-15.367187c-7.363281-4.253906-16.777343-1.730469-21.023437 5.632812-4.25 7.359375-1.726563 16.773438 5.632813 21.023438l26.621093 15.367187-26.621093 15.371094c-7.359376 4.25-9.882813 13.664063-5.632813 21.023437 4.253906 7.363282 13.667969 9.882813 21.023437 5.632813l26.621094-15.367187v32.144531c0 8.5 6.890625 15.390625 15.390625 15.390625s15.390625-6.890625 15.390625-15.390625v-32.144531l26.621094 15.367187c7.355469 4.25 16.773438 1.730469 21.023438-5.632813 4.25-7.359374 1.726562-16.773437-5.632813-21.023437zm0 0"/><path d="m122.171875 191.429688h34.753906v39.585937h-34.753906zm0 0"/><path d="m164.046875 315.089844c-4.433594-2.820313-7.121094-7.714844-7.121094-12.980469v-40.3125h-34.753906v75.292969c31.132813 7.027344 54.445313 34.894531 54.445313 68.117187 0 38.507813-31.328126 69.835938-69.835938 69.835938-38.496094 0-69.832031-31.328125-69.832031-69.835938 0-33.222656 23.324219-61.089843 54.441406-68.117187v-284.289063c0-8.507812 6.894531-15.390625 15.390625-15.390625 8.507812 0 15.390625 6.882813 15.390625 15.390625v107.847657h34.753906v-111.492188c0-27.105469-22.050781-49.15625-49.15625-49.15625h-1.960937c-27.109375 0-49.160156 22.050781-49.160156 49.15625v252.953125c0 5.265625-2.6875 10.160156-7.121094 12.980469-31.550782 20.101562-50.058594 54.382812-49.5156252 91.71875.8320312 57.191406 48.0390622 104.378906 105.2421872 105.179687 59.636719.828125 108.320313-47.132812 108.320313-106.78125 0-36.667969-18.511719-70.355469-49.527344-90.117187zm0 0"/><path d="m67.730469 405.207031c0 21.539063 17.527343 39.054688 39.050781 39.054688 21.539062 0 39.054688-17.515625 39.054688-39.054688 0-21.523437-17.515626-39.050781-39.054688-39.050781-21.523438 0-39.050781 17.527344-39.050781 39.050781zm0 0"/></svg>