<?xml version="1.0" encoding="iso-8859-1"?>
<!-- Generator: Adobe Illustrator 19.0.0, SVG Export Plug-In . SVG Version: 6.00 Build 0)  -->
<svg version="1.1" id="Layer_1" xmlns="http://www.w3.org/2000/svg" xmlns:xlink="http://www.w3.org/1999/xlink" x="0px" y="0px"
	 viewBox="0 0 463.944 463.944" style="enable-background:new 0 0 463.944 463.944;" xml:space="preserve">
<g id="XMLID_232_">
	<g>
		<g>
			<path d="M445.703,141.669c-11.685-27.627-28.407-52.432-49.701-73.726s-46.099-38.016-73.726-49.701
				C293.658,6.137,263.275,0,231.972,0c-31.303,0-61.685,6.137-90.303,18.242c-27.627,11.685-52.432,28.407-73.726,49.701
				s-38.016,46.099-49.701,73.726C6.137,170.287,0,200.669,0,231.972s6.137,61.685,18.242,90.303
				c11.685,27.627,28.407,52.432,49.701,73.726s46.099,38.016,73.726,49.701c28.618,12.105,59,18.242,90.303,18.242
				c31.303,0,61.685-6.137,90.303-18.242c27.627-11.685,52.432-28.407,73.726-49.701c21.294-21.294,38.016-46.099,49.701-73.726
				c12.104-28.618,18.242-59,18.242-90.303C463.944,200.669,457.807,170.287,445.703,141.669z M231.972,433.944
				C120.426,433.944,30,343.518,30,231.972S120.426,30,231.972,30s201.972,90.426,201.972,201.972S343.518,433.944,231.972,433.944z
				"/>
			<path d="M231.972,80.124c-83.729,0-151.848,68.118-151.848,151.848c0,8.284,6.716,15,15,15s15-6.716,15-15
				c0-67.188,54.661-121.848,121.848-121.848s121.849,54.66,121.849,121.848c0,64.136-49.81,116.855-112.777,121.511l9.895-9.895
				c5.858-5.857,5.858-15.355,0-21.213c-5.857-5.858-15.355-5.858-21.213,0l-36.874,36.873c-2.813,2.813-4.394,6.628-4.394,10.606
				c0,3.978,1.58,7.794,4.394,10.607l36.874,36.874c2.929,2.93,6.767,4.393,10.607,4.393c3.838,0,7.678-1.465,10.606-4.393
				c5.858-5.857,5.858-15.355,0-21.213l-12.45-12.451c80.718-3.426,145.332-70.154,145.332-151.7
				C383.821,148.242,315.702,80.124,231.972,80.124z"/>
			<path d="M231.972,139.967c-8.284,0-15,6.716-15,15v77.005c0,8.284,6.716,15,15,15h53.683c8.284,0,15-6.716,15-15s-6.716-15-15-15
				h-38.683v-62.005C246.972,146.683,240.256,139.967,231.972,139.967z"/>
		</g>
	</g>
</g>
<g>
</g>
<g>
</g>
<g>
</g>
<g>
</g>
<g>
</g>
<g>
</g>
<g>
</g>
<g>
</g>
<g>
</g>
<g>
</g>
<g>
</g>
<g>
</g>
<g>
</g>
<g>
</g>
<g>
</g>
</svg>
